<svg width="16" height="16" viewBox="0 0 16 16" fill="none" xmlns="http://www.w3.org/2000/svg">
<path d="M6.99996 11C6.73476 10.9999 6.48045 10.8945 6.29296 10.707L4.29296 8.70696C4.19745 8.61471 4.12127 8.50437 4.06886 8.38236C4.01645 8.26036 3.98886 8.12914 3.98771 7.99636C3.98655 7.86358 4.01186 7.7319 4.06214 7.609C4.11242 7.48611 4.18667 7.37446 4.28056 7.28056C4.37446 7.18667 4.48611 7.11242 4.60901 7.06214C4.7319 7.01186 4.86358 6.98655 4.99636 6.98771C5.12914 6.98886 5.26036 7.01645 5.38236 7.06886C5.50437 7.12127 5.61471 7.19745 5.70696 7.29296L6.99996 8.58596L10.293 5.29296C10.3852 5.19745 10.4956 5.12127 10.6176 5.06886C10.7396 5.01645 10.8708 4.98886 11.0036 4.98771C11.1363 4.98655 11.268 5.01186 11.3909 5.06214C11.5138 5.11242 11.6255 5.18667 11.7194 5.28056C11.8132 5.37446 11.8875 5.48611 11.9378 5.60901C11.9881 5.7319 12.0134 5.86358 12.0122 5.99636C12.0111 6.12914 11.9835 6.26036 11.9311 6.38236C11.8787 6.50437 11.8025 6.61471 11.707 6.70696L7.70696 10.707C7.51947 10.8945 7.26515 10.9999 6.99996 11Z" fill="#1CD068"/>
<path d="M2.40706 4.789C2.5623 4.789 2.71542 4.75285 2.85427 4.68343C2.99313 4.614 3.11391 4.51319 3.20706 4.389C3.51969 3.97524 3.88437 3.60351 4.29206 3.283C4.50052 3.11896 4.63528 2.87883 4.66669 2.61544C4.6981 2.35204 4.62359 2.08696 4.45956 1.8785C4.29552 1.67004 4.05539 1.53528 3.792 1.50387C3.5286 1.47246 3.26352 1.54696 3.05506 1.711C2.51191 2.13912 2.02594 2.63517 1.60906 3.187C1.49763 3.33557 1.42978 3.51223 1.4131 3.69719C1.39642 3.88215 1.43158 4.06811 1.51463 4.23421C1.59768 4.40032 1.72535 4.54002 1.88333 4.63765C2.0413 4.73528 2.22335 4.787 2.40906 4.787L2.40706 4.789Z" fill="#1CD068"/>
<path d="M2.052 8.79104C2.01754 8.52878 2.00017 8.26455 2 8.00004C1.99977 7.74561 2.0158 7.49142 2.048 7.23904C2.08169 6.97594 2.00947 6.71025 1.84726 6.50039C1.68504 6.29054 1.4461 6.15372 1.183 6.12004C0.919908 6.08636 0.654209 6.15857 0.444355 6.32079C0.234502 6.48301 0.0976853 6.72194 0.0640028 6.98504C-0.0229764 7.67107 -0.0212959 8.36544 0.0690028 9.05104C0.10052 9.29142 0.218291 9.51217 0.400402 9.6722C0.582514 9.83224 0.816564 9.92067 1.059 9.92104C1.10282 9.92103 1.14659 9.91802 1.19 9.91204C1.45296 9.87767 1.69149 9.74027 1.85314 9.53005C2.0148 9.31982 2.08633 9.054 2.052 8.79104Z" fill="#1CD068"/>
<path d="M3.224 11.633C3.14578 11.5251 3.04677 11.4339 2.93279 11.3648C2.81881 11.2957 2.69217 11.25 2.5603 11.2306C2.42843 11.2111 2.29401 11.2182 2.16492 11.2514C2.03584 11.2847 1.91471 11.3434 1.80864 11.4241C1.70258 11.5049 1.61372 11.606 1.5473 11.7216C1.48088 11.8371 1.43823 11.9648 1.42187 12.0971C1.40551 12.2294 1.41576 12.3636 1.45201 12.4919C1.48827 12.6201 1.54981 12.7399 1.633 12.844C2.05162 13.3942 2.53967 13.888 3.085 14.313C3.29426 14.4761 3.55974 14.5494 3.82304 14.5168C4.08634 14.4841 4.3259 14.3483 4.489 14.139C4.65211 13.9297 4.72541 13.6643 4.69278 13.401C4.66015 13.1377 4.52426 12.8981 4.315 12.735C3.90513 12.4165 3.53839 12.046 3.224 11.633Z" fill="#1CD068"/>
<path d="M8.00004 0C7.61964 0.000261748 7.23972 0.026993 6.86304 0.08C6.61293 0.115624 6.38557 0.244594 6.22666 0.44099C6.06775 0.637386 5.98906 0.886652 6.00641 1.13869C6.02376 1.39073 6.13586 1.62686 6.32019 1.79962C6.50452 1.97239 6.7474 2.06899 7.00004 2.07C7.04718 2.06999 7.09427 2.06699 7.14104 2.061C7.42562 2.02086 7.71264 2.00048 8.00004 2C9.59134 2 11.1175 2.63214 12.2427 3.75736C13.3679 4.88258 14 6.4087 14 8C14 9.5913 13.3679 11.1174 12.2427 12.2426C11.1175 13.3679 9.59134 14 8.00004 14C7.71264 13.9995 7.42562 13.9791 7.14104 13.939C7.01096 13.9207 6.87857 13.9283 6.75141 13.9612C6.62425 13.9941 6.50482 14.0518 6.39994 14.1308C6.18811 14.2905 6.0484 14.5278 6.01154 14.7905C5.99328 14.9206 6.00083 15.053 6.03374 15.1801C6.06665 15.3073 6.12429 15.4267 6.20336 15.5316C6.36305 15.7434 6.60034 15.8831 6.86304 15.92C7.23972 15.973 7.61964 15.9997 8.00004 16C10.1218 16 12.1566 15.1571 13.6569 13.6569C15.1572 12.1566 16 10.1217 16 8C16 5.87827 15.1572 3.84344 13.6569 2.34315C12.1566 0.842855 10.1218 0 8.00004 0V0Z" fill="#1CD068"/>
</svg>
