<svg xmlns="http://www.w3.org/2000/svg" viewBox="0 0 446.73 81.27"><defs><style>.cls-1{fill:#fff;}</style></defs><title>Zasób 2</title><g id="Warstwa_2" data-name="Warstwa 2"><g id="Warstwa_1-2" data-name="Warstwa 1"><g id="Layer_1" data-name="Layer 1"><g id="PathID_15" data-name="PathID 15"><path class="cls-1" d="M25.63,36.68v9.13L.44,20l25.19,0H86.81L25.63,36.68"/></g><g id="PathID_17" data-name="PathID 17"><path class="cls-1" d="M61.19,62.72V53.59L86.37,79.44l-25.18,0H0L61.19,62.72"/></g><g id="PathID_19" data-name="PathID 19"><path class="cls-1" d="M138.26,50.76V18.66h13.43V52.58a28,28,0,0,1-1.14,8,25.57,25.57,0,0,1-3,7.06,29.89,29.89,0,0,1-5,5.92,32,32,0,0,1-6.83,4.78l-3.64,1.37-3,.91-3,.46-2.51.22A28,28,0,0,1,108.43,77a27.52,27.52,0,0,1-5.69-5.47,42,42,0,0,1-4.56-7.28L96.82,61l-.92-3.87-.68-4.78V18.66h13.89V51.22a25.78,25.78,0,0,0,.68,6.15,18.33,18.33,0,0,0,2,5A17.75,17.75,0,0,0,115.71,66a15.21,15.21,0,0,0,5.24,2.5l2.51.23a11,11,0,0,0,4.55-.91,10.53,10.53,0,0,0,3.87-2,18.2,18.2,0,0,0,3.19-3.64l2.28-4.56.45-2.27.23-1.6.23-3"/></g><g id="PathID_21" data-name="PathID 21"><path class="cls-1" d="M181.92,30.11a15,15,0,0,0-5.24,2.28A10.57,10.57,0,0,0,173,36a12.84,12.84,0,0,0-2.28,5,26.78,26.78,0,0,0-.68,6.38V79.75H156.19V46.05l.68-4.78a16.09,16.09,0,0,1,.91-3.87,10.64,10.64,0,0,1,1.37-3,32.94,32.94,0,0,1,4.33-7.52,33.31,33.31,0,0,1,5.92-5.46,27.83,27.83,0,0,1,6.83-3.19,37.15,37.15,0,0,1,8.42-.91h2.51l2.73.46,3.19.68,3.41,1.37A32.14,32.14,0,0,1,208.56,30.8a22.11,22.11,0,0,1,3,7.05,29,29,0,0,1,1.14,8.2v33.7H199.23V47.87L199,46.28V44.69l-.23-1.6-.23-1.59a34.13,34.13,0,0,0-2.5-5.24,14.68,14.68,0,0,0-3-3.64,11.07,11.07,0,0,0-4.1-2.28,14.2,14.2,0,0,0-4.55-.68h-.23l-2.28.45"/></g><g id="PathID_23" data-name="PathID 23"><path class="cls-1" d="M220,18.79h13.89v61H220v-61"/></g><g id="PathID_25" data-name="PathID 25"><path class="cls-1" d="M257.27,18.11l12.07,41.44,12.07-42.12H297.8L275.49,79.82H263L241.1,17.88l16.17.23"/></g><g id="PathID_27" data-name="PathID 27"><path class="cls-1" d="M329.14,15.62a37.46,37.46,0,0,1,9.56,1.14,29.09,29.09,0,0,1,8.2,3.87,25.66,25.66,0,0,1,6.15,6.61,27.79,27.79,0,0,1,4.1,9.1l.91,3.19.45,2.73.23,2.28v2.05l-.45,6.6H313.2v.46l1.14,3.41a10.71,10.71,0,0,0,1.82,3.19,10.09,10.09,0,0,0,2,2.28l2.73,2,2.28.91,2,.91,2.05.46h2.28l3-.23,3.64-1.37L339.84,63l3.65-3h.22l3.87,2.74,3.19,2.05,2.05,1.36.91.46.23.23A36.71,36.71,0,0,1,348,72.78a38.59,38.59,0,0,1-5.92,3.64,23,23,0,0,1-6.38,2.28,24.12,24.12,0,0,1-6.6.91A28.7,28.7,0,0,1,320,78.24a25.41,25.41,0,0,1-8-3.64,31.8,31.8,0,0,1-6.37-6.38,33.7,33.7,0,0,1-5-8.65l-.91-3.42-.69-3L298.63,50v-3a42.5,42.5,0,0,1,.68-7.75A31.23,31.23,0,0,1,302,32.24a25,25,0,0,1,4.33-6.37,47.08,47.08,0,0,1,6.38-5.69l3.87-2.05,4.09-1.37,4.1-.91,4.33-.23M313.2,41.81h31.65a7.64,7.64,0,0,0-.68-3l-1.37-2.73-2.27-3.19-3.42-3.19-2.28-.91-2.05-.68L331,27.92l-1.36.23h-.46a20.52,20.52,0,0,0-5.46.68,13.27,13.27,0,0,0-4.33,2.5,16,16,0,0,0-3.64,4.1,17.85,17.85,0,0,0-2.51,5.7v.68"/></g><g id="PathID_29" data-name="PathID 29"><path class="cls-1" d="M416,28.51l-1.83,1.37-3,2.05-4.1,3.19h-.45L403,31.93a17,17,0,0,0-3.42-2.28L396,28.29l-3.42-.46h-1.82l-2.05.46-2.05.68-2.28,1.36-2.73,1.6-2.05,2.5-1.59,3-1.37,4.33-.45,1.14-.23.91v6.15l.45,1.82.46,2L378,57.2a10.71,10.71,0,0,0,1.82,3.19,10.09,10.09,0,0,0,2,2.28l2.73,2,2.28.91,2,.91L391,67l1.82.22,3.41-.45,3.65-1.37,3.64-2.28,3.64-3h.23l3.87,2.74L414.4,65l2.05,1.36.91.46a28.25,28.25,0,0,1-5.69,6.15,39.08,39.08,0,0,1-5.92,3.64,23,23,0,0,1-6.38,2.28,24.12,24.12,0,0,1-6.6.91,32.2,32.2,0,0,1-6.83-.69,28.86,28.86,0,0,1-6.15-2,28.47,28.47,0,0,1-5.24-3.41A21.61,21.61,0,0,1,370,69a35.09,35.09,0,0,1-3.64-4.78L363.85,59l-1.37-5.47L362,47.64v-3l.45-3,.69-3.19.91-3.19a38.86,38.86,0,0,1,5-8.88,27.46,27.46,0,0,1,6.37-6.14,25.54,25.54,0,0,1,7.75-3.65,36.47,36.47,0,0,1,9.33-1.14,31.21,31.21,0,0,1,6.61.69,23,23,0,0,1,6.14,2.27,23.77,23.77,0,0,1,5.92,3.65,38.22,38.22,0,0,1,5.7,5.46l-.91.91"/></g><g id="PathID_31" data-name="PathID 31"><path class="cls-1" d="M446.73,29.15H433.52V58.06a15.69,15.69,0,0,0,.46,3.88,7.19,7.19,0,0,0,2,2.73,10.51,10.51,0,0,0,3.41,1.82,15.31,15.31,0,0,0,4.78.68l2.51-.23v12.3L441,79.7A20.79,20.79,0,0,1,434,78.56a18.08,18.08,0,0,1-5.69-2.73A16.34,16.34,0,0,1,424,71a20.8,20.8,0,0,1-3.19-6.37l-.68-2.28-.23-2.73-.23-3V0h13.89V17.08h13.21V29.15"/></g></g></g></g></svg>