<svg width="24" height="24" viewBox="0 0 24 24" fill="none" xmlns="http://www.w3.org/2000/svg">
<path d="M19 20.4859V19.7409C19 18.6639 18.423 17.6699 17.488 17.1359L14.269 15.2939" stroke="#B3ADCC" stroke-width="2" stroke-miterlimit="10"/>
<path d="M9.727 15.292L6.512 17.136C5.577 17.67 5 18.664 5 19.741V20.486" stroke="#B3ADCC" stroke-width="2" stroke-miterlimit="10"/>
<path d="M12 16C9.791 16 8 14.209 8 12V10C8 7.791 9.791 6 12 6C14.209 6 16 7.791 16 10V12C16 14.209 14.209 16 12 16Z" stroke="#B3ADCC" stroke-width="2" stroke-miterlimit="10" stroke-linecap="square"/>
<path d="M12 23C18.0751 23 23 18.0751 23 12C23 5.92487 18.0751 1 12 1C5.92487 1 1 5.92487 1 12C1 18.0751 5.92487 23 12 23Z" stroke="#B3ADCC" stroke-width="2" stroke-miterlimit="10" stroke-linecap="square"/>
</svg>
