<svg width="14" height="16" viewBox="0 0 14 16" fill="none" xmlns="http://www.w3.org/2000/svg">
<path d="M8 0H6V6H8V0Z" fill="#E16364"/>
<path d="M11.7 3.80005C11.3 3.40005 10.7 3.50005 10.3 3.90005C9.9 4.30005 10 4.90005 10.4 5.30005C11.4 6.20005 12 7.60005 12 9.00005C12 11.8 9.8 14 7 14C4.2 14 2 11.8 2 9.00005C2 7.60005 2.6 6.20005 3.7 5.30005C4.1 4.90005 4.1 4.30005 3.8 3.90005C3.4 3.50005 2.8 3.50005 2.4 3.80005C0.9 5.10005 0 7.00005 0 9.00005C0 12.9001 3.1 16 7 16C10.9 16 14 12.9001 14 9.00005C14 7.00005 13.2 5.10005 11.7 3.80005Z" fill="#E16364"/>
</svg>
