<svg width="16" height="12" viewBox="0 0 16 12" fill="none" xmlns="http://www.w3.org/2000/svg">
<path d="M8 12C8.82843 12 9.5 11.3284 9.5 10.5C9.5 9.67157 8.82843 9 8 9C7.17157 9 6.5 9.67157 6.5 10.5C6.5 11.3284 7.17157 12 8 12Z" fill="#6FCF97"/>
<path d="M11.5 8C10.6 7 9.29998 6.5 7.99998 6.5C6.69998 6.5 5.39998 7 4.49998 8L3.09998 6.6C4.39998 5.2 6.09998 4.5 7.99998 4.5C9.89998 4.5 11.6 5.2 12.9 6.6L11.5 8Z" fill="#6FCF97"/>
<path d="M8 0C5 0 2.2 1.1 0 3.2L1.4 4.6C3.2 2.9 5.5 2 8 2C10.5 2 12.8 2.9 14.6 4.7L16 3.2C13.8 1.1 11 0 8 0Z" fill="#6FCF97"/>
</svg>
